<svg width="492" height="342" viewBox="0 0 492 342" fill="none" xmlns="http://www.w3.org/2000/svg">
<path d="M8 160.546C8 74.6404 75.1076 5 157.889 5H333.111C415.892 5 483 74.6404 483 160.546V182.454C483 268.359 415.892 338 333.111 338H157.889C75.1076 338 8 268.359 8 182.454V160.546Z" fill="#201C24"/>
<path d="M358 228.5C358 243.688 345.912 256 331 256C316.088 256 304 243.688 304 228.5C304 213.312 316.088 201 331 201C345.912 201 358 213.312 358 228.5Z" fill="white"/>
<path d="M216.035 174.795H168.374L168.116 154.035H211.385C218.532 154.035 224.774 152.786 230.114 150.285C235.453 147.786 239.586 144.214 242.513 139.572C245.527 134.839 247.034 129.215 247.034 122.697C247.034 115.553 245.699 109.75 243.03 105.286C240.447 100.732 236.442 97.4284 231.018 95.3746C225.679 93.2318 218.877 92.161 210.61 92.161H173.928V266H149V71H210.61C220.254 71 228.865 72.0268 236.442 74.0803C244.02 76.0447 250.435 79.1697 255.688 83.4554C261.027 87.6518 265.073 93.0091 267.829 99.5272C270.585 106.044 271.962 113.857 271.962 122.964C271.962 131 269.982 138.277 266.021 144.794C262.06 151.224 256.549 156.491 249.488 160.599C242.513 164.705 234.333 167.339 224.947 168.5L216.035 174.795ZM214.873 266H158.558L172.637 244.973H214.873C222.795 244.973 229.511 243.545 235.022 240.688C240.618 237.831 244.882 233.812 247.809 228.634C250.737 223.366 252.2 217.161 252.2 210.018C252.2 202.786 250.952 196.535 248.455 191.268C245.958 186 242.039 181.938 236.701 179.08C231.362 176.223 224.474 174.795 216.035 174.795H180.515L180.774 154.035H229.339L234.634 161.536C243.675 162.34 251.339 165.018 257.625 169.571C263.911 174.035 268.69 179.75 271.962 186.714C275.321 193.679 277 201.357 277 209.749C277 221.893 274.416 232.161 269.249 240.554C264.17 248.857 256.98 255.196 247.68 259.572C238.381 263.857 227.444 266 214.873 266Z" fill="white"/>
</svg>
