<svg width="1550" height="365" viewBox="0 0 1550 365" fill="none" xmlns="http://www.w3.org/2000/svg">
<g clip-path="url(#clip0_1_4)">
<path d="M0 172.64C0 100.489 58.4895 42 130.64 42H283.36C355.51 42 414 100.49 414 172.64V191.04C414 263.191 355.51 321.68 283.36 321.68H130.64C58.4895 321.68 0 263.19 0 191.04V172.64Z" fill="#201C24"/>
<path d="M181.226 185.04H139.785L139.561 167.633H177.183C183.397 167.633 188.825 166.585 193.467 164.489C198.109 162.392 201.703 159.398 204.248 155.504C206.869 151.536 208.179 146.819 208.179 141.354C208.179 135.364 207.018 130.498 204.697 126.754C202.451 122.936 198.97 120.166 194.253 118.444C189.611 116.647 183.696 115.749 176.509 115.749H144.614V261.52H122.94V98.0044H176.509C184.894 98.0044 192.381 98.8654 198.97 100.587C205.558 102.235 211.136 104.855 215.703 108.449C220.345 111.968 223.864 116.46 226.26 121.925C228.656 127.391 229.854 133.942 229.854 141.579C229.854 148.317 228.132 154.419 224.688 159.884C221.244 165.275 216.452 169.692 210.313 173.136C204.248 176.58 197.135 178.789 188.975 179.762L181.226 185.04ZM180.215 261.52H131.25L143.491 243.888H180.215C187.103 243.888 192.943 242.69 197.734 240.294C202.601 237.899 206.307 234.529 208.853 230.187C211.398 225.77 212.671 220.566 212.671 214.577C212.671 208.512 211.585 203.271 209.414 198.854C207.243 194.437 203.836 191.03 199.194 188.634C194.552 186.238 188.563 185.04 181.226 185.04H150.342L150.566 167.633H192.793L197.398 173.922C205.259 174.596 211.922 176.842 217.388 180.661C222.853 184.404 227.009 189.196 229.854 195.036C232.773 200.875 234.233 207.314 234.233 214.352C234.233 224.534 231.987 233.144 227.495 240.182C223.078 247.145 216.826 252.461 208.74 256.129C200.654 259.723 191.146 261.52 180.215 261.52Z" fill="white"/>
<path d="M314 239C314 251.703 303.703 262 291 262C278.297 262 268 251.703 268 239C268 226.297 278.297 216 291 216C303.703 216 314 226.297 314 239Z" fill="white"/>
<path d="M448.022 259.754V103.313C448.022 101.741 448.771 100.955 450.269 100.955H511.25C529.967 100.955 544.23 104.773 554.038 112.41C563.846 119.972 568.75 130.753 568.75 144.754C568.75 152.84 566.429 160.065 561.787 166.429C557.22 172.793 550.332 177.06 541.123 179.231C553.701 181.328 562.985 185.857 568.975 192.82C574.964 199.708 577.959 207.832 577.959 217.19C577.959 231.565 573.092 242.646 563.359 250.433C553.626 258.144 539.326 262 520.459 262H450.269C448.771 262 448.022 261.251 448.022 259.754ZM520.459 245.94C545.016 245.94 557.295 236.357 557.295 217.19C557.295 198.024 545.016 188.44 520.459 188.44H468.687V245.94H520.459ZM468.687 172.269H513.496C524.128 172.269 532.55 169.948 538.765 165.306C544.979 160.589 548.086 153.738 548.086 144.754C548.086 135.695 544.867 128.844 538.428 124.202C531.989 119.485 522.93 117.127 511.25 117.127H468.687V172.269ZM614.907 259.754V103.313C614.907 101.741 615.656 100.955 617.153 100.955H633.325C634.823 100.955 635.571 101.741 635.571 103.313V259.754C635.571 261.251 634.823 262 633.325 262H617.153C615.656 262 614.907 261.251 614.907 259.754ZM732.153 265.481C714.259 265.481 699.81 259.866 688.804 248.636C677.873 237.33 672.407 221.233 672.407 200.345C672.407 179.381 677.873 163.359 688.804 152.278C699.81 141.123 714.259 135.545 732.153 135.545C750.122 135.545 764.572 141.123 775.503 152.278C786.509 163.359 792.012 179.381 792.012 200.345C792.012 221.233 786.509 237.33 775.503 248.636C764.572 259.866 750.122 265.481 732.153 265.481ZM732.153 151.604C720.549 151.604 711.115 155.685 703.853 163.846C696.665 171.932 693.071 184.061 693.071 200.232C693.071 216.404 696.665 228.646 703.853 236.956C711.115 245.192 720.549 249.31 732.153 249.31C743.833 249.31 753.267 245.192 760.454 236.956C767.716 228.646 771.348 216.404 771.348 200.232C771.348 184.061 767.716 171.932 760.454 163.846C753.267 155.685 743.833 151.604 732.153 151.604ZM878.374 253.914C861.379 253.914 847.34 248.636 836.26 238.079C825.254 227.522 819.751 213.11 819.751 194.842C819.751 176.574 825.291 162.124 836.372 151.492C847.528 140.861 861.903 135.545 879.497 135.545C889.305 135.545 898.739 136.705 907.798 139.026C916.857 141.272 923.371 143.556 927.339 145.877L933.628 149.246V248.187C933.628 285.022 914.461 303.44 876.128 303.44C861.379 303.44 849.549 300.333 840.64 294.119C831.73 287.905 826.676 279.482 825.479 268.851C825.329 267.353 826.115 266.604 827.837 266.604H842.324C843.672 266.604 844.57 267.353 845.02 268.851C846.891 274.391 850.448 278.846 855.688 282.215C861.004 285.584 867.817 287.269 876.128 287.269C888.856 287.269 898.14 284.161 903.979 277.947C909.894 271.733 912.852 261.813 912.852 248.187V247.063C902.894 251.631 891.401 253.914 878.374 253.914ZM881.855 151.604C869.427 151.604 859.395 155.423 851.758 163.06C844.196 170.621 840.415 181.253 840.415 194.954C840.415 208.655 844.159 219.249 851.646 226.736C859.207 234.148 868.791 237.854 880.396 237.854C892.075 237.854 902.894 235.571 912.852 231.004V158.455C912.852 158.305 911.541 157.706 908.921 156.658C906.375 155.61 902.482 154.524 897.241 153.401C892 152.203 886.872 151.604 881.855 151.604ZM1026.84 253.914C1009.85 253.914 995.807 248.636 984.727 238.079C973.721 227.522 968.218 213.11 968.218 194.842C968.218 176.574 973.758 162.124 984.839 151.492C995.994 140.861 1010.37 135.545 1027.96 135.545C1037.77 135.545 1047.21 136.705 1056.26 139.026C1065.32 141.272 1071.84 143.556 1075.81 145.877L1082.09 149.246V248.187C1082.09 285.022 1062.93 303.44 1024.59 303.44C1009.85 303.44 998.016 300.333 989.106 294.119C980.197 287.905 975.143 279.482 973.945 268.851C973.796 267.353 974.582 266.604 976.304 266.604H990.791C992.139 266.604 993.037 267.353 993.486 268.851C995.358 274.391 998.914 278.846 1004.16 282.215C1009.47 285.584 1016.28 287.269 1024.59 287.269C1037.32 287.269 1046.61 284.161 1052.45 277.947C1058.36 271.733 1061.32 261.813 1061.32 248.187V247.063C1051.36 251.631 1039.87 253.914 1026.84 253.914ZM1030.32 151.604C1017.89 151.604 1007.86 155.423 1000.22 163.06C992.663 170.621 988.882 181.253 988.882 194.954C988.882 208.655 992.625 219.249 1000.11 226.736C1007.67 234.148 1017.26 237.854 1028.86 237.854C1040.54 237.854 1051.36 235.571 1061.32 231.004V158.455C1061.32 158.305 1060.01 157.706 1057.39 156.658C1054.84 155.61 1050.95 154.524 1045.71 153.401C1040.47 152.203 1035.34 151.604 1030.32 151.604ZM1174.63 265.706C1157.94 265.706 1144.09 260.053 1133.08 248.748C1122.15 237.368 1116.68 221.233 1116.68 200.345C1116.68 179.381 1122.15 163.359 1133.08 152.278C1144.09 141.123 1158.42 135.545 1176.09 135.545C1193.84 135.545 1208.29 141.235 1219.44 152.615C1230.67 163.921 1236.29 178.932 1236.29 197.649V203.377C1236.29 206.447 1234.75 207.981 1231.68 207.981H1137.57C1138.85 221.907 1142.96 232.314 1149.93 239.202C1156.89 246.09 1165.72 249.534 1176.43 249.534C1193.35 249.534 1205.63 242.646 1213.27 228.87C1214.17 227.373 1215.1 226.624 1216.07 226.624H1230.56C1232.51 226.624 1233.26 227.522 1232.81 229.319C1229.74 240.4 1223.45 249.235 1213.94 255.823C1204.43 262.412 1191.33 265.706 1174.63 265.706ZM1137.57 191.81H1215.62C1214.95 179.756 1210.83 170.06 1203.27 162.723C1195.71 155.311 1186.69 151.604 1176.21 151.604C1165.8 151.604 1157.08 155.011 1150.04 161.824C1143 168.637 1138.85 178.632 1137.57 191.81ZM1273.24 259.754V141.272C1273.24 139.7 1273.99 138.914 1275.48 138.914H1288.17C1289.67 138.914 1290.49 139.7 1290.64 141.272L1292.78 160.813L1294.58 158.23C1295.4 157.182 1297.27 155.236 1300.19 152.391C1303.19 149.546 1306.48 147.112 1310.07 145.091C1313.74 142.994 1318.53 141.085 1324.45 139.363C1330.44 137.566 1336.73 136.668 1343.32 136.668H1352.52C1354.1 136.668 1354.88 137.417 1354.88 138.914V152.728C1354.88 154.3 1354.1 155.086 1352.52 155.086H1345.67C1338.19 155.086 1331.3 156.059 1325.01 158.006C1318.72 159.878 1313.7 162.161 1309.96 164.856C1302.4 170.397 1297.5 175.338 1295.25 179.681L1293.9 182.601V259.754C1293.9 261.251 1293.15 262 1291.66 262H1275.48C1273.99 262 1273.24 261.251 1273.24 259.754ZM1370.16 229.095C1370.08 228.72 1370.04 228.421 1370.04 228.196C1370.04 226.998 1370.87 226.399 1372.51 226.399H1387C1387.9 226.399 1388.84 227.148 1389.81 228.646C1397.45 242.422 1410.85 249.31 1430.01 249.31C1440.87 249.31 1448.96 247.7 1454.27 244.48C1459.59 241.261 1462.25 237.218 1462.25 232.352C1462.25 227.485 1460.41 223.517 1456.74 220.447C1453.15 217.303 1446.94 214.682 1438.1 212.586L1409.35 205.623C1384.79 199.633 1372.51 187.767 1372.51 170.022C1372.51 159.915 1377.08 151.642 1386.22 145.203C1395.35 138.764 1407.89 135.545 1423.84 135.545C1439.79 135.545 1452.66 138.839 1462.47 145.428C1472.28 152.016 1478.72 160.813 1481.79 171.819C1482.24 173.691 1481.45 174.627 1479.43 174.627H1464.94C1464.04 174.627 1463.14 173.841 1462.25 172.269C1454.61 158.493 1441.96 151.604 1424.29 151.604C1414.03 151.604 1406.28 153.252 1401.04 156.546C1395.8 159.84 1393.18 163.921 1393.18 168.787C1393.18 173.579 1394.98 177.509 1398.57 180.579C1402.24 183.649 1408.49 186.269 1417.32 188.44L1446.07 195.291C1470.63 201.131 1482.91 213.035 1482.91 231.004C1482.91 241.111 1478.27 249.384 1468.98 255.823C1459.7 262.262 1446.71 265.481 1430.01 265.481C1413.32 265.481 1399.92 262.225 1389.81 255.711C1379.78 249.197 1373.23 240.325 1370.16 229.095Z" fill="#201C24"/>
</g>
<defs>
<clipPath id="clip0_1_4">
<rect width="1550" height="364.32" fill="white"/>
</clipPath>
</defs>
</svg>
